<mxfile host="app.diagrams.net" agent="Mozilla/5.0 (Windows NT 10.0; Win64; x64) AppleWebKit/537.36 (KHTML, like Gecko) Chrome/138.0.0.0 Safari/537.36" version="28.0.7">
  <diagram name="Page-1" id="VZ-8Pe0NFjf0qm1ey5LM">
    <mxGraphModel grid="1" page="1" gridSize="10" guides="1" tooltips="1" connect="1" arrows="1" fold="1" pageScale="1" pageWidth="827" pageHeight="1169" math="0" shadow="0">
      <root>
        <mxCell id="0" />
        <mxCell id="1" parent="0" />
        <mxCell id="orzRKVWakeRDOu_tkr3R-1" value="" style="rounded=0;whiteSpace=wrap;html=1;" vertex="1" parent="1">
          <mxGeometry x="260" y="-30" width="680" height="1150" as="geometry" />
        </mxCell>
        <mxCell id="grZllCPOERACQIhYUjEH-1" value="Registrasi" style="ellipse;whiteSpace=wrap;html=1;" vertex="1" parent="1">
          <mxGeometry x="460" y="270" width="160" height="40" as="geometry" />
        </mxCell>
        <mxCell id="grZllCPOERACQIhYUjEH-3" value="Login" style="ellipse;whiteSpace=wrap;html=1;" vertex="1" parent="1">
          <mxGeometry x="540" y="400" width="160" height="40" as="geometry" />
        </mxCell>
        <mxCell id="grZllCPOERACQIhYUjEH-4" value="Admin" style="shape=umlActor;verticalLabelPosition=bottom;verticalAlign=top;html=1;outlineConnect=0;" vertex="1" parent="1">
          <mxGeometry x="120" y="570" width="30" height="60" as="geometry" />
        </mxCell>
        <mxCell id="grZllCPOERACQIhYUjEH-5" value="Siswa" style="shape=umlActor;verticalLabelPosition=bottom;verticalAlign=top;html=1;outlineConnect=0;" vertex="1" parent="1">
          <mxGeometry x="120" y="220" width="30" height="60" as="geometry" />
        </mxCell>
        <mxCell id="grZllCPOERACQIhYUjEH-6" value="Tentor" style="shape=umlActor;verticalLabelPosition=bottom;verticalAlign=top;html=1;outlineConnect=0;" vertex="1" parent="1">
          <mxGeometry x="1150" y="400" width="30" height="60" as="geometry" />
        </mxCell>
        <mxCell id="grZllCPOERACQIhYUjEH-10" value="Mengisi presensi" style="ellipse;whiteSpace=wrap;html=1;" vertex="1" parent="1">
          <mxGeometry x="350" y="520" width="160" height="40" as="geometry" />
        </mxCell>
        <mxCell id="grZllCPOERACQIhYUjEH-11" value="Melihat Total Presensi" style="ellipse;whiteSpace=wrap;html=1;" vertex="1" parent="1">
          <mxGeometry x="610" y="1060" width="160" height="40" as="geometry" />
        </mxCell>
        <mxCell id="grZllCPOERACQIhYUjEH-12" value="Mengelola Presensi" style="ellipse;whiteSpace=wrap;html=1;" vertex="1" parent="1">
          <mxGeometry x="350" y="660" width="160" height="40" as="geometry" />
        </mxCell>
        <mxCell id="grZllCPOERACQIhYUjEH-13" value="Mengubah Password" style="ellipse;whiteSpace=wrap;html=1;" vertex="1" parent="1">
          <mxGeometry x="660" y="60" width="160" height="40" as="geometry" />
        </mxCell>
        <mxCell id="grZllCPOERACQIhYUjEH-14" value="Melihat Status Kehadiran" style="ellipse;whiteSpace=wrap;html=1;" vertex="1" parent="1">
          <mxGeometry x="350" y="585" width="160" height="40" as="geometry" />
        </mxCell>
        <mxCell id="grZllCPOERACQIhYUjEH-16" value="Menerima Siswa Baru" style="ellipse;whiteSpace=wrap;html=1;" vertex="1" parent="1">
          <mxGeometry x="380" y="730" width="160" height="40" as="geometry" />
        </mxCell>
        <mxCell id="grZllCPOERACQIhYUjEH-17" value="Menambah Tentor Baru" style="ellipse;whiteSpace=wrap;html=1;" vertex="1" parent="1">
          <mxGeometry x="410" y="800" width="160" height="40" as="geometry" />
        </mxCell>
        <mxCell id="grZllCPOERACQIhYUjEH-18" value="Membuat Jadwal" style="ellipse;whiteSpace=wrap;html=1;" vertex="1" parent="1">
          <mxGeometry x="460" y="870" width="160" height="40" as="geometry" />
        </mxCell>
        <mxCell id="FgDRNRWr1b7-KvThlkLD-2" value="Mengganti Jadwal" style="ellipse;whiteSpace=wrap;html=1;" vertex="1" parent="1">
          <mxGeometry x="530" y="950" width="160" height="40" as="geometry" />
        </mxCell>
        <mxCell id="ir0M4MDXdLH-hw3-Vxff-1" value="" style="endArrow=none;html=1;rounded=0;exitX=0;exitY=0.5;exitDx=0;exitDy=0;entryX=0;entryY=0.5;entryDx=0;entryDy=0;" edge="1" parent="1" source="grZllCPOERACQIhYUjEH-11" target="grZllCPOERACQIhYUjEH-3">
          <mxGeometry width="50" height="50" relative="1" as="geometry">
            <mxPoint x="350" y="500" as="sourcePoint" />
            <mxPoint x="520" y="270" as="targetPoint" />
            <Array as="points">
              <mxPoint x="160" y="600" />
            </Array>
          </mxGeometry>
        </mxCell>
        <mxCell id="ir0M4MDXdLH-hw3-Vxff-3" value="" style="endArrow=none;html=1;rounded=0;entryX=0;entryY=0.5;entryDx=0;entryDy=0;exitX=0;exitY=0.5;exitDx=0;exitDy=0;" edge="1" parent="1" source="grZllCPOERACQIhYUjEH-16" target="grZllCPOERACQIhYUjEH-12">
          <mxGeometry width="50" height="50" relative="1" as="geometry">
            <mxPoint x="360" y="740" as="sourcePoint" />
            <mxPoint x="350" y="570" as="targetPoint" />
            <Array as="points">
              <mxPoint x="160" y="600" />
            </Array>
          </mxGeometry>
        </mxCell>
        <mxCell id="ir0M4MDXdLH-hw3-Vxff-4" value="" style="endArrow=none;html=1;rounded=0;exitX=0;exitY=0.5;exitDx=0;exitDy=0;entryX=0;entryY=0.5;entryDx=0;entryDy=0;" edge="1" parent="1" source="FgDRNRWr1b7-KvThlkLD-2" target="grZllCPOERACQIhYUjEH-18">
          <mxGeometry width="50" height="50" relative="1" as="geometry">
            <mxPoint x="360" y="740" as="sourcePoint" />
            <mxPoint x="350" y="890" as="targetPoint" />
            <Array as="points">
              <mxPoint x="160" y="600" />
            </Array>
          </mxGeometry>
        </mxCell>
        <mxCell id="ir0M4MDXdLH-hw3-Vxff-5" value="Memulai Kelas" style="ellipse;whiteSpace=wrap;html=1;" vertex="1" parent="1">
          <mxGeometry x="740" y="510" width="160" height="40" as="geometry" />
        </mxCell>
        <mxCell id="ir0M4MDXdLH-hw3-Vxff-6" value="Mengakhiri Kelas" style="ellipse;whiteSpace=wrap;html=1;" vertex="1" parent="1">
          <mxGeometry x="740" y="600" width="160" height="40" as="geometry" />
        </mxCell>
        <mxCell id="ir0M4MDXdLH-hw3-Vxff-8" value="" style="endArrow=none;html=1;rounded=0;entryX=0;entryY=0.5;entryDx=0;entryDy=0;exitX=0;exitY=0.5;exitDx=0;exitDy=0;" edge="1" parent="1" source="grZllCPOERACQIhYUjEH-14" target="grZllCPOERACQIhYUjEH-10">
          <mxGeometry width="50" height="50" relative="1" as="geometry">
            <mxPoint x="370" y="270" as="sourcePoint" />
            <mxPoint x="370" y="190" as="targetPoint" />
            <Array as="points">
              <mxPoint x="160" y="250" />
            </Array>
          </mxGeometry>
        </mxCell>
        <mxCell id="ir0M4MDXdLH-hw3-Vxff-15" value="" style="endArrow=none;html=1;rounded=0;exitX=1;exitY=0.5;exitDx=0;exitDy=0;entryX=1;entryY=0.5;entryDx=0;entryDy=0;" edge="1" parent="1" source="ir0M4MDXdLH-hw3-Vxff-5" target="grZllCPOERACQIhYUjEH-11">
          <mxGeometry width="50" height="50" relative="1" as="geometry">
            <mxPoint x="520" y="425" as="sourcePoint" />
            <mxPoint x="520" y="585" as="targetPoint" />
            <Array as="points">
              <mxPoint x="1140" y="440" />
            </Array>
          </mxGeometry>
        </mxCell>
        <mxCell id="orzRKVWakeRDOu_tkr3R-6" value="&lt;font style=&quot;font-size: 18px;&quot;&gt;Course Management System&lt;/font&gt;" style="text;html=1;align=center;verticalAlign=middle;whiteSpace=wrap;rounded=0;" vertex="1" parent="1">
          <mxGeometry x="430" width="360" height="30" as="geometry" />
        </mxCell>
        <mxCell id="d3n9-J-7jm0id44tSKq5-5" value="" style="endArrow=none;html=1;rounded=0;entryX=0;entryY=0.5;entryDx=0;entryDy=0;" edge="1" parent="1" target="grZllCPOERACQIhYUjEH-17">
          <mxGeometry width="50" height="50" relative="1" as="geometry">
            <mxPoint x="160" y="600" as="sourcePoint" />
            <mxPoint x="550" y="730" as="targetPoint" />
          </mxGeometry>
        </mxCell>
        <mxCell id="d3n9-J-7jm0id44tSKq5-6" value="" style="endArrow=none;html=1;rounded=0;entryX=0;entryY=0.5;entryDx=0;entryDy=0;" edge="1" parent="1" target="grZllCPOERACQIhYUjEH-3">
          <mxGeometry width="50" height="50" relative="1" as="geometry">
            <mxPoint x="160" y="250" as="sourcePoint" />
            <mxPoint x="510" y="380" as="targetPoint" />
          </mxGeometry>
        </mxCell>
        <mxCell id="JlJbU5uTqBWViiujQ5tc-5" value="" style="endArrow=none;html=1;rounded=0;exitX=1;exitY=0.5;exitDx=0;exitDy=0;" edge="1" parent="1" source="grZllCPOERACQIhYUjEH-3">
          <mxGeometry width="50" height="50" relative="1" as="geometry">
            <mxPoint x="670" y="540" as="sourcePoint" />
            <mxPoint x="1140" y="440" as="targetPoint" />
          </mxGeometry>
        </mxCell>
        <mxCell id="d3n9-J-7jm0id44tSKq5-7" value="" style="endArrow=none;html=1;rounded=0;exitX=1;exitY=0.5;exitDx=0;exitDy=0;" edge="1" parent="1" source="grZllCPOERACQIhYUjEH-13">
          <mxGeometry width="50" height="50" relative="1" as="geometry">
            <mxPoint x="610" y="540" as="sourcePoint" />
            <mxPoint x="1140" y="440" as="targetPoint" />
          </mxGeometry>
        </mxCell>
        <mxCell id="JlJbU5uTqBWViiujQ5tc-6" value="" style="endArrow=none;html=1;rounded=0;exitX=1;exitY=0.5;exitDx=0;exitDy=0;entryX=0;entryY=0.5;entryDx=0;entryDy=0;" edge="1" parent="1" target="grZllCPOERACQIhYUjEH-1">
          <mxGeometry width="50" height="50" relative="1" as="geometry">
            <mxPoint x="160" y="250" as="sourcePoint" />
            <mxPoint x="620" y="160" as="targetPoint" />
          </mxGeometry>
        </mxCell>
        <mxCell id="d3n9-J-7jm0id44tSKq5-8" value="&amp;lt;&amp;lt;Depend&amp;gt;&amp;gt;" style="endArrow=open;endSize=12;dashed=1;html=1;rounded=0;exitX=0.5;exitY=0;exitDx=0;exitDy=0;entryX=0.5;entryY=1;entryDx=0;entryDy=0;" edge="1" parent="1" source="grZllCPOERACQIhYUjEH-3" target="grZllCPOERACQIhYUjEH-1">
          <mxGeometry width="160" relative="1" as="geometry">
            <mxPoint x="550" y="370" as="sourcePoint" />
            <mxPoint x="710" y="370" as="targetPoint" />
          </mxGeometry>
        </mxCell>
        <mxCell id="d3n9-J-7jm0id44tSKq5-10" value="&amp;lt;&amp;lt;Extend&amp;gt;&amp;gt;" style="endArrow=open;endSize=12;dashed=1;html=1;rounded=0;exitX=0.5;exitY=1;exitDx=0;exitDy=0;entryX=0.5;entryY=0;entryDx=0;entryDy=0;" edge="1" parent="1" source="grZllCPOERACQIhYUjEH-13" target="grZllCPOERACQIhYUjEH-3">
          <mxGeometry x="0.0256" width="160" relative="1" as="geometry">
            <mxPoint x="600" y="340" as="sourcePoint" />
            <mxPoint x="760" y="340" as="targetPoint" />
            <mxPoint as="offset" />
          </mxGeometry>
        </mxCell>
        <mxCell id="d3n9-J-7jm0id44tSKq5-11" value="&amp;lt;&amp;lt;Include&amp;gt;&amp;gt;" style="endArrow=open;endSize=12;dashed=1;html=1;rounded=0;exitX=0.5;exitY=0;exitDx=0;exitDy=0;entryX=0.5;entryY=1;entryDx=0;entryDy=0;" edge="1" parent="1" source="ir0M4MDXdLH-hw3-Vxff-6" target="ir0M4MDXdLH-hw3-Vxff-5">
          <mxGeometry width="160" relative="1" as="geometry">
            <mxPoint x="580" y="470" as="sourcePoint" />
            <mxPoint x="740" y="470" as="targetPoint" />
          </mxGeometry>
        </mxCell>
        <mxCell id="d3n9-J-7jm0id44tSKq5-12" value="&amp;lt;&amp;lt;Include&amp;gt;&amp;gt;" style="endArrow=open;endSize=12;dashed=1;html=1;rounded=0;exitX=1;exitY=0.5;exitDx=0;exitDy=0;entryX=0.5;entryY=1;entryDx=0;entryDy=0;" edge="1" parent="1" source="grZllCPOERACQIhYUjEH-10" target="grZllCPOERACQIhYUjEH-3">
          <mxGeometry width="160" relative="1" as="geometry">
            <mxPoint x="510" y="410" as="sourcePoint" />
            <mxPoint x="630" y="290" as="targetPoint" />
          </mxGeometry>
        </mxCell>
        <mxCell id="d3n9-J-7jm0id44tSKq5-13" value="&amp;lt;&amp;lt;Include&amp;gt;&amp;gt;" style="endArrow=open;endSize=12;dashed=1;html=1;rounded=0;exitX=0;exitY=0.5;exitDx=0;exitDy=0;entryX=0.5;entryY=1;entryDx=0;entryDy=0;" edge="1" parent="1" source="ir0M4MDXdLH-hw3-Vxff-5" target="grZllCPOERACQIhYUjEH-3">
          <mxGeometry width="160" relative="1" as="geometry">
            <mxPoint x="470" y="260" as="sourcePoint" />
            <mxPoint x="563" y="456" as="targetPoint" />
          </mxGeometry>
        </mxCell>
        <mxCell id="VIk94RIBlbGNOStqbW9o-3" value="&amp;lt;&amp;lt;Include&amp;gt;&amp;gt;" style="endArrow=open;endSize=12;dashed=1;html=1;rounded=0;exitX=1;exitY=0.5;exitDx=0;exitDy=0;entryX=0.5;entryY=1;entryDx=0;entryDy=0;" edge="1" parent="1" source="grZllCPOERACQIhYUjEH-14" target="grZllCPOERACQIhYUjEH-3">
          <mxGeometry width="160" relative="1" as="geometry">
            <mxPoint x="387" y="260" as="sourcePoint" />
            <mxPoint x="480" y="456" as="targetPoint" />
          </mxGeometry>
        </mxCell>
        <mxCell id="d3n9-J-7jm0id44tSKq5-14" value="&amp;lt;&amp;lt;Include&amp;gt;&amp;gt;" style="endArrow=open;endSize=12;dashed=1;html=1;rounded=0;exitX=1;exitY=0.5;exitDx=0;exitDy=0;entryX=0.5;entryY=1;entryDx=0;entryDy=0;" edge="1" parent="1" target="grZllCPOERACQIhYUjEH-3">
          <mxGeometry width="160" relative="1" as="geometry">
            <mxPoint x="510" y="680" as="sourcePoint" />
            <mxPoint x="590" y="440" as="targetPoint" />
          </mxGeometry>
        </mxCell>
        <mxCell id="d3n9-J-7jm0id44tSKq5-15" value="&amp;lt;&amp;lt;Include&amp;gt;&amp;gt;" style="endArrow=open;endSize=12;dashed=1;html=1;rounded=0;exitX=1;exitY=0.5;exitDx=0;exitDy=0;entryX=0.5;entryY=1;entryDx=0;entryDy=0;" edge="1" parent="1" source="grZllCPOERACQIhYUjEH-16" target="grZllCPOERACQIhYUjEH-3">
          <mxGeometry width="160" relative="1" as="geometry">
            <mxPoint x="520" y="700" as="sourcePoint" />
            <mxPoint x="600" y="290" as="targetPoint" />
          </mxGeometry>
        </mxCell>
        <mxCell id="d3n9-J-7jm0id44tSKq5-17" value="&amp;lt;&amp;lt;Include&amp;gt;&amp;gt;" style="endArrow=open;endSize=12;dashed=1;html=1;rounded=0;exitX=1;exitY=0.5;exitDx=0;exitDy=0;entryX=0.5;entryY=1;entryDx=0;entryDy=0;" edge="1" parent="1" source="grZllCPOERACQIhYUjEH-17" target="grZllCPOERACQIhYUjEH-3">
          <mxGeometry width="160" relative="1" as="geometry">
            <mxPoint x="520" y="840" as="sourcePoint" />
            <mxPoint x="574" y="590" as="targetPoint" />
          </mxGeometry>
        </mxCell>
        <mxCell id="d3n9-J-7jm0id44tSKq5-18" value="&amp;lt;&amp;lt;Include&amp;gt;&amp;gt;" style="endArrow=open;endSize=12;dashed=1;html=1;rounded=0;exitX=1;exitY=0.5;exitDx=0;exitDy=0;entryX=0.5;entryY=1;entryDx=0;entryDy=0;" edge="1" parent="1" source="grZllCPOERACQIhYUjEH-18" target="grZllCPOERACQIhYUjEH-3">
          <mxGeometry width="160" relative="1" as="geometry">
            <mxPoint x="540" y="1020" as="sourcePoint" />
            <mxPoint x="590" y="700" as="targetPoint" />
          </mxGeometry>
        </mxCell>
        <mxCell id="d3n9-J-7jm0id44tSKq5-19" value="&amp;lt;&amp;lt;Include&amp;gt;&amp;gt;" style="endArrow=open;endSize=12;dashed=1;html=1;rounded=0;exitX=0.5;exitY=0;exitDx=0;exitDy=0;" edge="1" parent="1" source="FgDRNRWr1b7-KvThlkLD-2" target="grZllCPOERACQIhYUjEH-18">
          <mxGeometry width="160" relative="1" as="geometry">
            <mxPoint x="600" y="1040" as="sourcePoint" />
            <mxPoint x="623" y="650" as="targetPoint" />
          </mxGeometry>
        </mxCell>
        <mxCell id="d3n9-J-7jm0id44tSKq5-21" value="&amp;lt;&amp;lt;Include&amp;gt;&amp;gt;" style="endArrow=open;endSize=12;dashed=1;html=1;rounded=0;exitX=0.671;exitY=0.003;exitDx=0;exitDy=0;exitPerimeter=0;entryX=0.5;entryY=1;entryDx=0;entryDy=0;" edge="1" parent="1">
          <mxGeometry width="160" relative="1" as="geometry">
            <mxPoint x="717.3599999999999" y="1060.0000000000002" as="sourcePoint" />
            <mxPoint x="620" y="439.88" as="targetPoint" />
          </mxGeometry>
        </mxCell>
        <mxCell id="d3n9-J-7jm0id44tSKq5-22" value="" style="endArrow=none;html=1;rounded=0;entryX=0;entryY=0.5;entryDx=0;entryDy=0;" edge="1" parent="1" target="grZllCPOERACQIhYUjEH-13">
          <mxGeometry width="50" height="50" relative="1" as="geometry">
            <mxPoint x="160" y="250" as="sourcePoint" />
            <mxPoint x="700" y="560" as="targetPoint" />
          </mxGeometry>
        </mxCell>
        <mxCell id="wT_jjOI-S3Ih2rw9Q9wW-1" value="Mengupload Modul" style="ellipse;whiteSpace=wrap;html=1;" vertex="1" parent="1">
          <mxGeometry x="760" y="240" width="160" height="40" as="geometry" />
        </mxCell>
        <mxCell id="wT_jjOI-S3Ih2rw9Q9wW-2" value="Melihat Modul" style="ellipse;whiteSpace=wrap;html=1;" vertex="1" parent="1">
          <mxGeometry x="360" y="200" width="160" height="40" as="geometry" />
        </mxCell>
        <mxCell id="wT_jjOI-S3Ih2rw9Q9wW-4" value="Menghapus Modul" style="ellipse;whiteSpace=wrap;html=1;" vertex="1" parent="1">
          <mxGeometry x="760" y="320" width="160" height="40" as="geometry" />
        </mxCell>
        <mxCell id="wT_jjOI-S3Ih2rw9Q9wW-5" value="&amp;lt;&amp;lt;Include&amp;gt;&amp;gt;" style="endArrow=open;endSize=12;dashed=1;html=1;rounded=0;exitX=0.5;exitY=0;exitDx=0;exitDy=0;entryX=0.5;entryY=1;entryDx=0;entryDy=0;" edge="1" parent="1" source="wT_jjOI-S3Ih2rw9Q9wW-4" target="wT_jjOI-S3Ih2rw9Q9wW-1">
          <mxGeometry x="-0.2" width="160" relative="1" as="geometry">
            <mxPoint x="800" y="470" as="sourcePoint" />
            <mxPoint x="800" y="420" as="targetPoint" />
            <mxPoint as="offset" />
          </mxGeometry>
        </mxCell>
        <mxCell id="wT_jjOI-S3Ih2rw9Q9wW-8" value="" style="endArrow=none;html=1;rounded=0;exitX=1;exitY=0.5;exitDx=0;exitDy=0;" edge="1" parent="1" source="wT_jjOI-S3Ih2rw9Q9wW-1">
          <mxGeometry width="50" height="50" relative="1" as="geometry">
            <mxPoint x="880" y="80" as="sourcePoint" />
            <mxPoint x="1140" y="440" as="targetPoint" />
          </mxGeometry>
        </mxCell>
        <mxCell id="wT_jjOI-S3Ih2rw9Q9wW-9" value="" style="endArrow=none;html=1;rounded=0;entryX=0;entryY=0.5;entryDx=0;entryDy=0;" edge="1" parent="1" target="wT_jjOI-S3Ih2rw9Q9wW-2">
          <mxGeometry width="50" height="50" relative="1" as="geometry">
            <mxPoint x="160" y="250" as="sourcePoint" />
            <mxPoint x="710" y="240" as="targetPoint" />
          </mxGeometry>
        </mxCell>
        <mxCell id="wT_jjOI-S3Ih2rw9Q9wW-11" value="&amp;lt;&amp;lt;Include&amp;gt;&amp;gt;" style="endArrow=open;endSize=12;dashed=1;html=1;rounded=0;exitX=0;exitY=0.5;exitDx=0;exitDy=0;entryX=0.5;entryY=0;entryDx=0;entryDy=0;" edge="1" parent="1" source="wT_jjOI-S3Ih2rw9Q9wW-1" target="grZllCPOERACQIhYUjEH-3">
          <mxGeometry x="-0.2" width="160" relative="1" as="geometry">
            <mxPoint x="820" y="340" as="sourcePoint" />
            <mxPoint x="820" y="290" as="targetPoint" />
            <mxPoint as="offset" />
            <Array as="points">
              <mxPoint x="700" y="320" />
            </Array>
          </mxGeometry>
        </mxCell>
      </root>
    </mxGraphModel>
  </diagram>
</mxfile>
